<?xml version="1.0" standalone="no"?>
<!DOCTYPE svg PUBLIC "-//W3C//DTD SVG 20010904//EN"
 "http://www.w3.org/TR/2001/REC-SVG-20010904/DTD/svg10.dtd">
<svg version="1.0" xmlns="http://www.w3.org/2000/svg"
 width="439.000000pt" height="439.000000pt" viewBox="0 0 439.000000 439.000000"
 preserveAspectRatio="xMidYMid meet">
<metadata>
Created by potrace 1.11, written by Peter Selinger 2001-2013
</metadata>
<g transform="translate(0.000000,439.000000) scale(0.100000,-0.100000)"
fill="#000000" stroke="none">
<path d="M1990 3705 c-379 -56 -741 -286 -960 -610 -101 -150 -194 -377 -226
-554 -21 -115 -21 -387 0 -502 33 -181 136 -426 244 -578 72 -101 264 -288
368 -358 236 -160 517 -246 804 -246 287 0 568 86 804 246 104 70 296 257 368
358 108 152 211 397 244 578 21 115 21 387 0 502 -32 177 -125 404 -226 554
-188 278 -488 492 -815 582 -151 41 -430 54 -605 28z m429 -251 c76 -11 138
-28 220 -61 269 -107 451 -261 601 -508 38 -63 100 -200 100 -221 0 -2 -54 -4
-120 -4 -89 0 -120 3 -120 13 0 6 -23 52 -51 100 -95 163 -262 314 -436 393
-140 64 -207 77 -393 77 -136 0 -178 -3 -240 -20 -304 -84 -556 -314 -660
-603 -49 -136 -63 -226 -58 -369 5 -115 9 -137 47 -250 25 -76 61 -156 93
-209 125 -208 337 -366 574 -428 85 -23 119 -27 244 -27 125 0 159 4 244 27
237 62 449 220 574 428 32 53 68 133 94 209 39 116 42 133 46 262 l5 137 110
0 110 0 -6 -147 c-6 -150 -22 -230 -76 -387 -64 -182 -220 -387 -398 -522
-132 -100 -361 -195 -536 -224 -80 -13 -254 -13 -334 0 -175 29 -404 124 -536
224 -184 139 -336 342 -402 537 -62 180 -69 223 -69 409 -1 152 3 187 23 265
69 263 190 466 372 623 273 236 608 331 978 276z m-17 -480 c152 -45 300 -148
386 -268 l33 -46 -141 0 c-129 0 -145 2 -172 21 -206 147 -476 120 -646 -65
-46 -50 -102 -156 -102 -193 l0 -23 581 0 581 0 -4 -127 c-4 -111 -9 -140 -35
-217 -119 -339 -482 -533 -834 -445 -157 39 -306 137 -393 260 l-36 49 146 0
c138 0 147 -1 177 -24 105 -78 270 -108 403 -72 124 33 248 135 303 249 55
114 121 102 -546 105 l-583 2 0 108 c0 164 38 288 122 404 56 77 150 166 211
202 69 41 195 87 260 96 81 11 222 3 289 -16z"/>
</g>
</svg>
